<?xml version="1.0" encoding="utf-8"?><svg viewBox="0 0 502.66 502.66" xmlns="http://www.w3.org/2000/svg" xmlns:xlink="http://www.w3.org/1999/xlink"><style>:root>svg{display:none}:root>svg:target{display:block}</style><svg fill="none" viewBox="0 0 19 19" id="fb" xmlns="http://www.w3.org/2000/svg"><path d="M4.708 18.89v-8.446H.113v-3.04h4.595V4.805C4.708 2.765 7.422.89 13.676.89c2.533 0 4.405.118 4.405.118l-.148 2.84s-1.91-.009-3.993-.009c-2.255 0-2.617.505-2.617 1.344v2.22h6.79l-.296 3.041h-6.494v8.446H4.708z" fill="#F5F5F5" fill-opacity=".75"/></svg><svg viewBox="0 0 502.664 502.664" id="icon" xmlns="http://www.w3.org/2000/svg"><g fill="#010002"><path d="M153.821 358.226L0 274.337v-46.463l153.821-83.414v54.574L46.636 250.523l107.185 53.431v54.272zM180.094 387.584L282.103 115.08h32.227L212.084 387.584h-31.99zM348.843 358.226v-54.272l107.164-52.999-107.164-52.59v-53.927l153.821 83.522v46.183l-153.821 84.083z"/></g></svg><svg viewBox="0 0 21 20" id="instagram" xmlns="http://www.w3.org/2000/svg"><path d="M15.563 2.5h-10c-1.417 0-2.5 1.083-2.5 2.5v10c0 1.417 1.083 2.5 2.5 2.5h10c1.417 0 2.5-1.083 2.5-2.5V5c0-1.417-1.083-2.5-2.5-2.5zm-5 5c1.417 0 2.5 1.083 2.5 2.5s-1.083 2.5-2.5 2.5-2.5-1.083-2.5-2.5 1.083-2.5 2.5-2.5zm3.167-1.667c0-.583.5-1 1-1s1 .5 1 1-.417 1-1 1c-.584 0-1-.416-1-1zm1.833 10h-10c-.5 0-.833-.333-.833-.833v-5h1.666a4.126 4.126 0 004.167 4.167A4.126 4.126 0 0014.73 10h1.666v5c0 .5-.333.833-.833.833z" fill="#F5F5F5" fill-opacity=".75"/></svg><svg fill="none" viewBox="0 0 18 24" id="location" xmlns="http://www.w3.org/2000/svg"><path d="M9 0C4.038 0 0 4.066 0 9.065c0 7.103 8.154 14.437 8.501 14.745a.749.749 0 00.998.001C9.846 23.502 18 16.168 18 9.065 18 4.066 13.962 0 9 0zm0 14c-2.757 0-5-2.243-5-5s2.243-5 5-5 5 2.243 5 5-2.243 5-5 5z" fill="#fff"/></svg><svg fill="none" viewBox="0 0 24 24" id="mail" xmlns="http://www.w3.org/2000/svg"><g clip-path="url(#eclip0)" fill="#fff"><path d="M23.788 4.768L16.51 12l7.278 7.232c.132-.275.212-.58.212-.904V5.672c0-.325-.08-.629-.212-.904zM21.89 3.563H2.11c-.325 0-.63.08-.904.21l9.303 9.257c.822.823 2.16.823 2.982 0l9.303-9.256a2.085 2.085 0 00-.904-.212zM.211 4.768A2.085 2.085 0 000 5.672v12.656c0 .325.08.629.211.904L7.491 12 .21 4.768z"/><path d="M15.515 12.994l-1.03 1.03a3.52 3.52 0 01-4.97 0l-1.03-1.03-7.28 7.232c.276.132.58.212.904.212h19.782c.324 0 .628-.08.903-.212l-7.279-7.232z"/></g><defs><clipPath id="eclip0"><path fill="#fff" d="M0 0h24v24H0z"/></clipPath></defs></svg><svg fill="none" viewBox="0 0 21 20" id="ok" xmlns="http://www.w3.org/2000/svg"><path d="M10.27 10.284c-2.354 0-4.31-1.955-4.31-4.268 0-2.393 1.956-4.35 4.31-4.35 2.436 0 4.312 1.956 4.312 4.35a4.285 4.285 0 01-4.298 4.269h-.014zm0-6.103c-.997 0-1.755.837-1.755 1.836 0 .996.758 1.755 1.756 1.755 1.037 0 1.756-.759 1.756-1.755 0-1-.719-1.836-1.757-1.836zm1.717 9.655l2.435 2.354c.48.517.48 1.276 0 1.755-.518.517-1.317.517-1.716 0l-2.435-2.394-2.355 2.394c-.24.24-.56.358-.92.358-.279 0-.598-.12-.878-.358-.479-.48-.479-1.238 0-1.756l2.475-2.354a11.244 11.244 0 01-2.552-1.116c-.6-.319-.719-1.117-.4-1.716.4-.598 1.118-.757 1.757-.358a5.516 5.516 0 005.748 0c.639-.4 1.396-.24 1.756.358.36.6.199 1.396-.36 1.716-.758.48-1.636.838-2.555 1.118v-.001z" fill="#F5F5F5" fill-opacity=".75"/></svg><svg fill="none" viewBox="0 0 24 24" id="phone" xmlns="http://www.w3.org/2000/svg"><path d="M18.246 15.876c-.784-.774-1.762-.774-2.542 0-.594.59-1.188 1.179-1.773 1.778-.16.165-.294.2-.489.09-.385-.21-.794-.38-1.164-.61-1.723-1.083-3.166-2.476-4.445-4.045-.634-.779-1.198-1.613-1.593-2.552-.08-.19-.065-.315.09-.47.594-.574 1.174-1.163 1.758-1.752.814-.82.814-1.778-.005-2.602-.464-.47-.929-.93-1.393-1.399-.48-.48-.954-.964-1.439-1.438-.784-.764-1.763-.764-2.542.005C2.11 3.47 1.536 4.074.926 4.654.362 5.188.077 5.842.017 6.607c-.094 1.243.21 2.417.64 3.56.879 2.368 2.217 4.47 3.84 6.398 2.193 2.607 4.81 4.67 7.871 6.158 1.379.67 2.807 1.184 4.36 1.269 1.069.06 1.998-.21 2.742-1.044.51-.57 1.084-1.089 1.623-1.633.8-.81.804-1.788.01-2.587a775.863 775.863 0 00-2.857-2.852zM17.293 11.897l1.843-.315a8.237 8.237 0 00-2.303-4.445 8.193 8.193 0 00-4.694-2.342l-.26 1.853a6.356 6.356 0 013.636 1.813 6.355 6.355 0 011.778 3.436zM20.174 3.886A13.589 13.589 0 0012.384 0l-.26 1.853a11.782 11.782 0 016.732 3.356 11.773 11.773 0 013.301 6.368L24 11.262a13.688 13.688 0 00-3.826-7.376z" fill="#FFFCFC"/></svg><svg fill="none" viewBox="0 0 21 20" id="telegram" xmlns="http://www.w3.org/2000/svg"><g clip-path="url(#hclip0)"><path fill-rule="evenodd" clip-rule="evenodd" d="M20.262 10c0 5.523-4.477 10-10 10-5.522 0-10-4.477-10-10 0-5.522 4.478-10 10-10 5.523 0 10 4.478 10 10zM10.62 7.383c-.972.404-2.916 1.241-5.831 2.511-.473.188-.722.373-.744.553-.039.305.343.425.861.587.071.023.145.045.22.07.51.166 1.197.36 1.554.368.324.006.686-.127 1.085-.4 2.723-1.84 4.129-2.769 4.217-2.789.063-.014.15-.032.208.02.058.052.052.15.046.177-.038.16-1.533 1.552-2.308 2.272-.242.224-.412.383-.447.42-.079.08-.159.158-.235.232-.475.457-.83.8.02 1.36.408.27.735.492 1.06.713.356.243.711.485 1.171.786.117.077.229.156.338.234.414.296.786.56 1.246.519.267-.025.544-.276.684-1.025.33-1.772.982-5.608 1.133-7.19.01-.131.004-.263-.017-.394a.422.422 0 00-.143-.27c-.12-.098-.304-.119-.387-.117-.376.007-.953.208-3.73 1.363z" fill="#F5F5F5" fill-opacity=".75"/></g><defs><clipPath id="hclip0"><path fill="#fff" transform="translate(.262)" d="M0 0h20v20H0z"/></clipPath></defs></svg><svg fill="none" viewBox="0 0 21 20" id="tiktok" xmlns="http://www.w3.org/2000/svg"><path d="M11.307.017C12.397 0 13.482.01 14.565 0c.066 1.276.524 2.575 1.458 3.477.932.924 2.25 1.347 3.533 1.49v3.356c-1.202-.04-2.41-.29-3.5-.807-.475-.215-.918-.492-1.35-.775-.007 2.435.01 4.867-.017 7.292a6.344 6.344 0 01-1.126 3.284c-1.09 1.599-2.982 2.64-4.925 2.673-1.192.068-2.383-.257-3.399-.856-1.683-.992-2.867-2.809-3.04-4.759a13.935 13.935 0 01-.01-1.24 6.247 6.247 0 012.152-4.134c1.38-1.202 3.313-1.775 5.123-1.436.017 1.234-.032 2.468-.032 3.702-.827-.268-1.793-.193-2.516.31-.528.348-.928.86-1.137 1.457-.172.423-.123.892-.113 1.341.198 1.367 1.513 2.517 2.917 2.392.93-.01 1.823-.55 2.308-1.34.157-.277.332-.56.342-.886.081-1.49.049-2.975.059-4.465.007-3.36-.01-6.71.016-10.059h-.001z" fill="#F5F5F5" fill-opacity=".75"/></svg><svg fill="none" viewBox="0 0 21 20" id="vk" xmlns="http://www.w3.org/2000/svg"><path d="M18.682 5.713c.116-.388 0-.672-.552-.672h-1.828c-.465 0-.677.246-.794.516 0 0-.929 2.265-2.246 3.735-.425.427-.619.562-.85.562-.116 0-.285-.135-.285-.522v-3.62c0-.465-.134-.671-.521-.671H8.734c-.29 0-.465.215-.465.42 0 .44.658.542.726 1.781v2.69c0 .59-.106.697-.34.697-.618 0-2.125-2.274-3.02-4.877-.173-.506-.35-.71-.816-.71H2.992c-.522 0-.626.245-.626.516 0 .485.619 2.885 2.884 6.059 1.51 2.167 3.636 3.342 5.572 3.342 1.161 0 1.305-.26 1.305-.71V12.61c0-.522.11-.627.478-.627.27 0 .735.137 1.82 1.181 1.237 1.239 1.442 1.794 2.138 1.794h1.827c.522 0 .782-.26.632-.776-.164-.512-.755-1.258-1.54-2.14-.427-.504-1.065-1.045-1.259-1.316-.27-.35-.192-.504 0-.814.001.001 2.227-3.134 2.459-4.2z" fill="#F5F5F5" fill-opacity=".75"/></svg><svg fill="none" viewBox="0 0 20 20" id="youtube" xmlns="http://www.w3.org/2000/svg"><g clip-path="url(#kclip0)"><path d="M20 17.59H0V2.41h20v15.18zM7.122 14.436l6.993-4.392L7.122 5.65v8.785z" fill="#F5F5F5" fill-opacity=".75"/></g><defs><clipPath id="kclip0"><path fill="#fff" d="M0 0h20v20H0z"/></clipPath></defs></svg></svg>